<mxfile host="app.diagrams.net" modified="2024-02-20T08:56:21.805Z" agent="Mozilla/5.0 (Windows NT 10.0; Win64; x64) AppleWebKit/537.36 (KHTML, like Gecko) Chrome/121.0.0.0 Safari/537.36 Edg/121.0.0.0" etag="-OHYldYGqP3dA-2zuVCm" version="23.1.4" type="device">
  <diagram name="Pagina-1" id="RlPx2V80lAa3WAIiVTEK">
    <mxGraphModel dx="1386" dy="785" grid="1" gridSize="10" guides="1" tooltips="1" connect="1" arrows="1" fold="1" page="1" pageScale="1" pageWidth="827" pageHeight="1169" math="0" shadow="0">
      <root>
        <mxCell id="0" />
        <mxCell id="1" parent="0" />
        <mxCell id="vYMK42moYF4k0brq86LY-2" value="Facebook" style="shape=image;html=1;verticalAlign=bottom;verticalLabelPosition=top;labelBackgroundColor=none;imageAspect=0;aspect=fixed;image=https://cdn1.iconfinder.com/data/icons/social-media-2285/512/Colored_Facebook3_svg-128.png;labelPosition=center;align=center;" parent="1" vertex="1">
          <mxGeometry x="300" y="60" width="40" height="40" as="geometry" />
        </mxCell>
        <mxCell id="vYMK42moYF4k0brq86LY-3" value="Instagram" style="shape=image;verticalLabelPosition=top;labelBackgroundColor=default;verticalAlign=bottom;aspect=fixed;imageAspect=0;image=https://upload.wikimedia.org/wikipedia/commons/thumb/9/95/Instagram_logo_2022.svg/1200px-Instagram_logo_2022.svg.png;labelPosition=center;align=center;" parent="1" vertex="1">
          <mxGeometry x="440" y="60" width="40" height="40" as="geometry" />
        </mxCell>
        <mxCell id="vYMK42moYF4k0brq86LY-6" value="&lt;font color=&quot;#000000&quot;&gt;Ludus Users&lt;br&gt;&lt;br&gt;&lt;/font&gt;" style="outlineConnect=0;fillColor=#008a00;strokeColor=#005700;dashed=0;verticalLabelPosition=bottom;verticalAlign=top;align=center;html=1;fontSize=12;fontStyle=0;aspect=fixed;pointerEvents=1;shape=mxgraph.aws4.users;fillStyle=auto;fontColor=#ffffff;gradientDirection=south;gradientColor=default;" parent="1" vertex="1">
          <mxGeometry x="840" y="275" width="50" height="50" as="geometry" />
        </mxCell>
        <mxCell id="vYMK42moYF4k0brq86LY-10" value="&lt;b&gt;&lt;font style=&quot;font-size: 16px;&quot;&gt;Needs:&lt;/font&gt;&lt;/b&gt;&lt;br&gt;- creazione automatica di post sui social a partire da foto della serata&lt;br&gt;&lt;span style=&quot;white-space: pre;&quot;&gt;&#x9;&lt;/span&gt;- creazioni descrittive&lt;br&gt;- creazione automatica di storie per sponsorizzare eventi e tornei&lt;br&gt;&lt;span style=&quot;white-space: pre;&quot;&gt;&#x9;&lt;/span&gt;- trigger automatici e manuali sulla base degli eventi calendario&lt;br&gt;&lt;span style=&quot;white-space: pre;&quot;&gt;&#x9;&lt;/span&gt;- creazione di immagine da AI&lt;br&gt;&lt;span style=&quot;white-space: pre;&quot;&gt;&#x9;&lt;/span&gt;- gestione di un image storage" style="text;html=1;align=left;verticalAlign=middle;resizable=0;points=[];autosize=1;strokeColor=none;fillColor=none;" parent="1" vertex="1">
          <mxGeometry x="545" y="25" width="390" height="120" as="geometry" />
        </mxCell>
        <mxCell id="vYMK42moYF4k0brq86LY-12" value="" style="group;labelBackgroundColor=none;fontColor=#590d0d;" parent="1" vertex="1" connectable="0">
          <mxGeometry x="300" y="210" width="380" height="180" as="geometry" />
        </mxCell>
        <mxCell id="vYMK42moYF4k0brq86LY-11" value="" style="rounded=1;whiteSpace=wrap;html=1;" parent="vYMK42moYF4k0brq86LY-12" vertex="1">
          <mxGeometry x="10" y="20" width="370" height="160" as="geometry" />
        </mxCell>
        <mxCell id="vYMK42moYF4k0brq86LY-1" value="&lt;div style=&quot;text-align: center;&quot;&gt;&lt;span style=&quot;font-size: 14px;&quot;&gt;TelegramBot&lt;/span&gt;&lt;/div&gt;" style="shape=image;html=1;verticalAlign=middle;verticalLabelPosition=middle;labelBackgroundColor=none;imageAspect=0;aspect=fixed;image=https://cdn3.iconfinder.com/data/icons/social-media-chamfered-corner/154/telegram-128.png;labelPosition=right;align=left;spacingBottom=21;" parent="vYMK42moYF4k0brq86LY-12" vertex="1">
          <mxGeometry width="40" height="40" as="geometry" />
        </mxCell>
        <mxCell id="vYMK42moYF4k0brq86LY-13" style="edgeStyle=orthogonalEdgeStyle;rounded=0;orthogonalLoop=1;jettySize=auto;html=1;entryX=1;entryY=0.437;entryDx=0;entryDy=0;entryPerimeter=0;targetPerimeterSpacing=0;sourcePerimeterSpacing=5;endSize=6;startSize=6;" parent="1" source="vYMK42moYF4k0brq86LY-6" target="vYMK42moYF4k0brq86LY-11" edge="1">
          <mxGeometry relative="1" as="geometry" />
        </mxCell>
        <mxCell id="bDuVNfmG5sle6N2JD3q_-5" value="" style="rounded=1;whiteSpace=wrap;html=1;align=center;" vertex="1" parent="1">
          <mxGeometry x="349.13" y="492" width="249.13" height="160" as="geometry" />
        </mxCell>
        <mxCell id="bDuVNfmG5sle6N2JD3q_-6" value="LudusSMA" style="text;html=1;align=center;verticalAlign=middle;resizable=0;points=[];autosize=1;strokeColor=none;fillColor=none;" vertex="1" parent="1">
          <mxGeometry x="393.26" y="470" width="80" height="30" as="geometry" />
        </mxCell>
        <mxCell id="bDuVNfmG5sle6N2JD3q_-10" value="" style="shape=image;verticalLabelPosition=bottom;labelBackgroundColor=default;verticalAlign=top;aspect=fixed;imageAspect=0;image=data:image/jpeg,/9j/4AAQSkZJRgABAQEAAAAAAAD/4QAuRXhpZgAATU0AKgAAAAgAAkAAAAMAAAABAE0AAEABAAEAAAABAAAAAAAAAAD/2wBDAAoHBwkHBgoJCAkLCwoMDxkQDw4ODx4WFxIZJCAmJSMgIyIoLTkwKCo2KyIjMkQyNjs9QEBAJjBGS0U+Sjk/QD3/2wBDAQsLCw8NDx0QEB09KSMpPT09PT09PT09PT09PT09PT09PT09PT09PT09PT09PT09PT09PT09PT09PT09PT09PT3/wAARCAFkAdoDASIAAhEBAxEB/8QAHwAAAQUBAQEBAQEAAAAAAAAAAAECAwQFBgcICQoL/8QAtRAAAgEDAwIEAwUFBAQAAAF9AQIDAAQRBRIhMUEGE1FhByJxFDKBkaEII0KxwRVS0fAkM2JyggkKFhcYGRolJicoKSo0NTY3ODk6Q0RFRkdISUpTVFVWV1hZWmNkZWZnaGlqc3R1dnd4eXqDhIWGh4iJipKTlJWWl5iZmqKjpKWmp6ipqrKztLW2t7i5usLDxMXGx8jJytLT1NXW19jZ2uHi4+Tl5ufo6erx8vP09fb3+Pn6/8QAHwEAAwEBAQEBAQEBAQAAAAAAAAECAwQFBgcICQoL/8QAtREAAgECBAQDBAcFBAQAAQJ3AAECAxEEBSExBhJBUQdhcRMiMoEIFEKRobHBCSMzUvAVYnLRChYkNOEl8RcYGRomJygpKjU2Nzg5OkNERUZHSElKU1RVVldYWVpjZGVmZ2hpanN0dXZ3eHl6goOEhYaHiImKkpOUlZaXmJmaoqOkpaanqKmqsrO0tba3uLm6wsPExcbHyMnK0tPU1dbX2Nna4uPk5ebn6Onq8vP09fb3+Pn6/9oADAMBAAIRAxEAPwD2WiiigAooooAKKKKACiiigAooooAKKKKACiiigAooooAKKKKACiiigAooooAKKKKACiiigAooooAKKKKACiiigAooooAKKKKACiiigAooooAKKKKACiiigAoIzRRQAm0e9G0e9LRQAm0e9G0e9LRQAm0e9G0e9LRQAm0e9G0e9LRQAm0e9G0e9LRQAm0e9G0e9LRQAm0e9LRRQAUUUUAFFFFABRRRQAUUUUAFFFFABRRRQAUUUUAFFFFABRRRQAUUUUAFFFFABRRRQAUUUUAFFFFABRRRQAUUUUAFFFFABRRRQAUUUUAFFFFABRRRQAUUUUAFFFFABRRRQAUUUUAFFFFABRRRQAUUUUAFFFFABRRRQAUUUUAFFFFABRRRQAUUUUAFFFFABRRRQAUUUUAFFFFABRRRQAUUUUAFFFFABRRRQAUUUUAFFFFABRRRQAUUUUAFFFFABRRRQAUUUUAFFFFABRRRQAUUUUAFFFFABRRRQAUUUUAFFFFABRRRQAUUUUAFFFFABRRRQAUUUUAFFFFABRRRQAUUUUAFFFFABRRRQAUUUUAFFFFABRRRQAUUUUAFFFFABRRRQAUUUUAFFFFABRRRQAUUUUAFFFFABRRRQAUUUUAFFFFABRRRQAUUUUAFFFFABRRRQAUUUUAFFFFABRRRQAUUUUAFFFFABRRRQAUUUUAFFFFABRRRQAUUUUAFFFFABRRRQAUUUUAFFFFABRRRQAUUUUAFFFFABRRRQAUUUUAFFFFABRRRQAUUUUAFFFFABRRRQAUUUUAFFFFABRRRQAUUUUAFFFFABRRRQAUUUUAFFFFABRRRQAUUUUAFFFFABRRRQAUUUUAFFFFABRRRQAlFYuq+KLLSnMcjh5f7oPSsz/hJLi/O2BljBOBjmuatiqdLc2jh6klzW0OuormYxczY3SN7tnGanMUqD5JWB7EnNcTzamnazD2L7m/RXP8A26/tRyVkUetXbLWorlhHIPKl9CetdVHHUqrsnZkOm0adFFFdhAUUUUAFFFFABRRRQAUUUUAFFFFABRRRQAUUUUAFFFFABRRRQAUUUUAFFFFABRRRQAUUUUAFFFFABRRRQAUUVj6x4lstIUq7eZNjiJDzQk3sJtLc16q3WqWVln7RcxoR2Lc1xNzrWta4StuGtoT0VBkn8aZB4Oll+e4ZmY9S5zWyo93YydXsdBN460iIkLJJIR/dQ4qv/wALB0/P+onx64qoPC0EIG5lGPXio5NIs0z+9X86tUodyPayNaHx5pMhAkaWPPqhxWvZ6xY3wH2e5jY+mea4qTSLV+FkX86py6DsO6FsEdCpxQ6MXsxqq1uj0+ivPLHXNW0chZCbiEfwv1H411+keILTV0/dtslH3o26isZ03Hc1jUUtjUoooqCw5z2xRRRQAUUUUAFFFFABRRRQAVk+JNTOk6RNOv38bV+prQurqGytpJ7hwkaDJYmvHfGHjeTW5HhgDJZRn5QOre9KSbTsVBpSTa0IXEl1IZZHLOxySTmp5dci8N2wu5xvZuI0z941V0KKS/EeN3zDhT2qDx/4cvEtLa6EbSQx5Dqgzt968ecIqqqc3uevVxinS9xGhb/Ey/h+zTahp6w2dwf3cgNd5Z6zHcxq4IIYZB9a8Ajt73U5bexgZ5sNiOMDO2vdtK8PfYrC3ikfLxxhWI7msMwoUaVuXRvocFNt3ua32hXHbms6+t1k+ZDtYdGHGK0EtkjTGT+NQ3AUJx1rzIuzui3sLoevl5RZXpAkHCMf4q6WvN9SQgiSM4dTkEcV1vhnW11az2PxPEMMD396+iwOJdSPLLdHE2r2NuiiivRAKKKKACiiigAooooAKKKKACiiigAooooAKKKKACiiigAooooAKKKKACiiigAooooAKKKKACkLBFLMcAdSabLKkMbSSMFRRkknpXF6hq954juTZ6eGjtc4Zx1f/wCtVRg5MmUlFFjWPFUtzM1low3MTgzDt9KTSfCO9hc6g7PKxyS3JNbGkaDb6TCGYKXA5Y9qyfE3je20lGjiYNLjselaOairR+8iMHN3l9xsXNzp+iQEyFF2jp3rida+JiRO0dmgODgEGuH1PXL7XLkku21jwKfp3h+e8kCpE8sh6qozism29TZQitGT3njHVL0kq7KD6Gs99T1KQ5advzrt7L4a38qBpWhgB7H5jWj/AMKvJXm+XP8Au0r3C9tjzQarqEf/AC3b8TV628WX9vgOSw9zXVX3wsv1UtbXEM2BwpBUmuM1XQ7zSJjHdQNEc4BI4P0NNO2wXvurnU2Hi6C8wlyoB961BEshFxYylJVOQyHFeX8g9wwrX0jXp7CYBmJWtFVa0eqIdGMtY6M9l8PeIP7Qza3YCXSD/vsetb9eZW14mpRpc2r7LiP5gRXd6Hqq6pZByNsqHbIvoamaW62FFvZ7mlRRRUFhRRRQAUUUUAFFFFAHmHxR8QObmPSYGIQDdJg4z7VwsVssgHOK0fHchfxrqAP8L4FZsUwQDmgDpfC8qWupDdz8uBntXfpNFMm1wrKwwVIzmvH7e/nkvYmth8kRyxPeu4tdTJQMCcMM14eZUHzqaOmjZq3U6m107T7WQy21rBFI3VlXFWjKo965yPU2PepkuJJORkV5UoSbvJm3KaU14uSAOarSSnBJx0pgz95se9Vbq6A+734pJLZGdSSgilfyhyao6XqjaPqyXC/6tjtkGeCP/rU+4cuc+tZ8qZzXdh5ODTR5zk27nsFvOlzAk0R3I4yCKkri/A2scNp078rzET3Heu0r6CnNTimjWLugooorQYUUUUAFFFFABRRRQAUUUUAFFFFABRRRQAUUUUAFFFFABRRRQAUUUUAFFFFABTJZUhiaSRgqKMknsKcSFBJOAO9cfqt9N4hv/wCzrLItUb944/iP+FVGLkyZS5UQ3d7deK70W9ruSwU8kfx/X2rp7DTrfSLUBQowPmY0tlZW+kWeBtUKPmauA8aeOPvWtmx9CQetVKatZbChBt3Za8YePEt1e2smy3QkGvNQlzq9yZJCxBOSSelOs7GfU5/MkLbSeSRnNereFfBcdvFHc3qDGNyQ+nufeszZtLRGL4X8BvdIk1xmK3POcfM/+Ar0aw0y102BYrWFUAGMgcmrIAUAAAAdhS0EBRRRQAVVv9NtdTtmgvIVljYYwwq1RQB4p408FyeHZPtEG6Wwkbhscxn39q5F4inXoeQR3r6RvrKHULOW2uEDRyqVIIrwnV9Ek0jVrrTJP+WZ3Qsf4lpoW2pX0PVpLC5XJO3OCM9a9M0PUVt9ShuYz+5ucI4z0PavICCjn1Fdh4XvzcW0lqzHcBlT6VLdjRrnV+p7T1oqlo919s0q3l/iKgGrtMgKKKKACiiigAooooA8H+IcTW/jO9JB/encK5uXzEcJIGRcZwR1r1X4o+HnuprPUoELYcRSADOBXS3vg/S9b0u3iu4AHWIASJww49aAPFLO8WIAKAAK1rLVljfY5+Ruh9K6q6+ECh82d+QvZXXpWZqnw1vtJ097qO4W48vlkAxxWVampwaY1Jwd0TW15E6ghga07e/VB14rgrW4aMgZIwelbNtdE45rxKtCwPFye51D32RweKqO5ck+tVIZC+PerSdK4nGzMZTctyMpnrVeSI//AF6vgMegJ+gzQYXPWNvypxm0RYyo3ls7mOeElZEOQRXpuhazFrFkJFOJF4dfQ1wMlsT2OfcU/T5bvSLwXEIOOjL6iu/C4vkdnsyotpnp9FUNL1aDVIA8Rw4+8h6ir9e3GSkro2CiiiqAKKKKACiiigAooooAKKKKACiiigAooooAKKKKACiiigAooooAKKKhurhbW1knkOFRSxoAxfE2pOoTTbQ5uLgYJH8K1b0bTItJslyAHx8zGsrw/bteXM2q3X3pDlc9hVfxb4lWztXjRscc4NaSfKuVGcYubuZXjjxiI0a2tm7Y4715xZ2sup3JdydpOSaZJJLqt/kknce/avVvA3hVYIY765T5QP3SEdf9o1mu5u3ZWRd8I+E47GCO6u4x5uMpGeQvv9a66iiggKKKKACiiigAooooAK82+KdkIrzTNRVeQxjc+or0muL+J8Yfw9HxyJRigDybUYRHeMAOG5FTaDcta6nHzgE4NSaiN88frtFUUzFfoR2OaJl0tbo9w8HXHm6fLHn7khxxXQ1x/gKQyRXJ7HFdhSWxL3CiiimIKKKKACiiigBskaSptdVZfQjNOAAAA6CiigAprosiFWAKkYIPenUUAeJ+MtFOh6/Isa4gmO+P2z1/KqVnJ05r0T4m6cLjREuwPngcfketeZ2cnSvOxELN2Oeaszo7U5xWvZwiTBf7o7etYlm/ArbsZeAK8eqndgjWjRIxhVAHsKkwPSq0cmanD1xtNMYGNT1UfXFRvECOg9qmyPWmnFJNoCoiSWswmtmMcg9Ohro9M12O6Ihn/dz+h6NWLiopYVkHcEcgjjFd+Gx06Ls9UUm0dtRXNaVrUtuy22oHK9El/wAa6RSCMg5Br6GjWhVjzRZommLRRRWwwooooAKKKKACiiigAooooAKKKKACiiigAooooAKKKiuLmG1jLzyrGo7scUAS1zni66P2e3soz89xIAcelMvfG1nESlpG9y4OMqOK5eTXJ9W8QpNdRrGIF+VR2q1FrVohyT0R09/fJpuniFONq4wK8o8T6m11clNxIzk10Otaubgvg8DJNcRzdXvrlqhu7NoJJNnV+A/Dx1O/TzF/dKd0h9vT8a9nRRGgRQAoGAK8n8OeJpPD6PGkCSRu2STwRXb6d420y/IR2aCQ9n6Vbg7XsZKab3OjopsciyoHjYMp6EHIp1QUFFFFABRRRQAUUUUAFcX8RH82GytF5LuWI9hXZkhQSeAO9cPdsdb16WQDMUX7uM+vrVJXE3Y4K+s2WdSRxjAzWLLj+0AB2OK7rxJClueg+UVwUZ8293dec1DdzWmrJs9l+HcRGjyzEffk4/KuurH8K2X2Hw7aRkYYoGb6mtihbEPcKKKKYgooooAKKKKACiiigAooooAyvE9p9t8O3sOMkxkivDLZ8ED0NfQkyCSB0IyGUivn+9gNnqdzDjHlyFcVy4iN7GVRbM2bKXgVqWVxtcqT3rAspOlaIk8uYHs1eTUhrYzTOljlGM55FWElBUc1jxXI2c+lWY5u4NckqZRqCSl3iqIlFSiT3rF07AWsijIquJKXzBUcrGPcBwQRkEcg1o6PqbWri2uGJiJwjH+H2rL8wUhfNdOGrzoS5o/NAnZnc0VkaNqazoIJG/eDoT3rXr6elUjVipRNkFFFFaAFFFFABRRRQAUUUUAFFFFABRRRQAUcDmmySJEheRgqgZJJ6VyWo6xda5ctZaVuWDOHmHG76e1VGLkyZSUUXtX8VR2zm309Rc3OcHHIWsmHQL/WpBPqszFSchTwB+Fbmk+H7fTIw7gNJjJY81neI/GVtpUbJCytIOPpV8yjpHfuQoue5dj0nTdMQFgg29S1eca1fINeu5ICCjcKRWdqXiPU9bkYRs4jJ+8TgCssyMh2u4ZgMEg5qHJvVlqKWiLE1wTbSHPUVV0iPfclj/CM0kj5gcfjVnQ0yJvUKTU9TZL3GbenQJcyBdwyxxW3N4Vn8vei7hjPFefaZq8kNyVcnhuD6V6h4a8UpIEgujgkYBPetPaM5+RGbp+r6l4fnABZ4QcGJ69A0fXLXWYA8DgOB80ZPIqlqeiQalAXRV3EZBHeuHkju9A1ASwFlKn8/rV8qmtNyOZwdmer0Vm6HrEWsWCzJgOBh19DWlWDTTszZO6CiiigYUUVma3rMWkWpZjumYfu0Hc0JNuyE3ZalLxRq5toBZ2zf6RNwcfwr61HomnCy08yuMHbxms7QdNm1O8e9vCW3HJJ/kPatDxbrUWlaa0asAxHAHatZWiuVfMiKc3f7jz7xtqSmR0VuSccVleCtHOr69BHtJjDbn4/hFZN7cvqV6zkkgnivX/h34c/snSzdzpie4HQj7q9hWJ0SdlZHYogRAo6KMCloopmYUUUUAFFFFABRRRQAUUUUAFFFFABXiHjqD7J4wvFxgSEOPxFe315X8V7Ax6ha3oHEilSfpWVZXiRNXRy1lJgDmtCU+ZAGXqvIrEtpOnpWrby8Fex4ry5xs7mJdsroOg59qvRy9s1zRka1uTydrHI9q0be6z1PesZw6otK5vRy9P5VYR6yYps4z+dXYZM8frXNNFqJdD+9LvNRIQRTqwui+QfuPrRvNMzRSuh+zJo5mjcOpwVORXXaTqS38ABIEq9RXF1JbXkljOs0ZPB5A6GuzCYl0ZeTEotHoFFV7O7jvbZJozwe3pVivooyUkmgCiiiqAKKKKACiiigAooooAKjmnjtoWlmcIijJYnpTpJFiQu5CqoySa5C5mn8U3whh3JYxHPpv8Ar7VUY83oTKVhtzc3Piq68iANHYIeW6b/AH+ldHZ2Vto9mcbVCjljxUkMFvpVngBURRya848X+MZb+f7BpxYljjinKfRbChC7uy34v8c4zaWBLMxwNvJNcUbYg/adTbfKxysQP86mhtxYuFUG41CU44G7H0rv/C3gYQOt/rAEtweViPIX6+9RsaPy2OW0fwhqniHa7qbOy7MRgkewqh448LxeF7y1W2LtFKnzM3dq9vChAFUAAdAK5L4k6OdT8MSSouZbU+auPTv+lAjxkngj2rQ8POPtTRn+NSKz5EwiuPusMg0tjMbe8RwcYNJo0pu90dj4e8F6Z4k065iV2ttUt3O5gchwehI9O1ULnS7/AMO3gtNTiKoTiOYfdar1rfy6LqsGr2uWjbiZB/EP/rV6c8eneKdGG4JNbzLwepU/0NUtNTJ9jF8Jaw0sYtp2yyjAPrWjr+lrd2xkC/MBXG2ttceH9ZNlOxJjOY3/AL6Hp+Ir0a2kW5tVPUEVafK7oiS5lZ7nnmlXUuhaqJBnymO2Qeo/+tXpUbrLGsiEFWGQa4nXrARXT8fK3tWx4Pvjcaa9rIcyWzbefTtV1ktJImk90zoaKKwde8Tw6SPJhAmumHCA8L9axSbdkatpLUs63rkGj2xZiGnb7kYPJrmNN0668Qagbu7Jxnk9lHoKbpGj3Wt3RvL92bJyWbt7D2rqr29tNC0/J2oqjhRxmtG1BWW5mk5vyEv7620LTScqoUYA9a8W8T6/LrV+wDErnjBqx4q8Uz61dFI2bywcAA0eEfCs2vX4TBWJTmV/Qf4msW7nQlyrzNT4f+Ejqd6Lq5Q/ZYjuJI+83pXsKgKoAGAO1V7Gxg06zjtrZAkcYwABVmmSFFFFAgooooAKKKKACiiigAooooAKKKKACuR+JOmm+8MySquXtz5gx6d666orq2S7tZYJBlJFKkUpK6sJq6PnO3kxjNaFtL84GetQ+INJl0LWZ7ORSAG3IT3WoIZuhrz6kDnasa95CJY+OvWqNtctG/lucMOhPerkNx5gAPYYqve2u/516+1c9ujHF2Zp21z0BPHoe1aVvMMjBBB6VylvdMh2OcMOAfWtS2uveuarTaOqFmdKkwHtUol9xWLFc4Iy3X17VaFwBjJHJxXDKLTOmMUzTD570tU45fQ/gasCRT14PvWDbRqqaZJSHkVGkoJweDSSnAHPU4o5ncfsUaWh6s2m3gRyfIkOGHofWu4DBgCDkHvXmJOetdX4V1j7TCbOZv3kX3Se4r3Msxd37KT9DnrUXFXR0lFFFe2cwUUUUAFFFFABRRWT4h1JrCyCQn/SJjsjA7e/4UJXdhN2RmazdyaxfjTLNv3Kn98w7n0rdsrOHS7MKoChRyaqaBpgsbQO/Mr/ADMx9awfHniQ2Nt9lt2/evxwea0m7LlWyIgru7MTxr4slvJ/7P04kljg4rnLa1a3kW1s1M19OdrMOcfSo4YpLfAUGW+uD26rmvT/AAf4UTRbYXN0N99KMsTzs9hWexq2tlsJ4U8HRaLGt1dhZb9hksf4PYV1NFFAgpksayxtHIAUYYIPcU+igDxHxD4fOjazNYOMQzkvat0+orlbiJ7eYqwIZTXv3ifw9D4i0poHwk6/NDKByjV4/f2bieTT9Sj8m+iOAxGBIPX8aa10Fdp3Q7QdSSRPs0/Ktxz2rbs7zUPDNyZ9PbfbscvCeQR/jXDvFNZTZwQVPUV0ui64syCG4PtzQnbRlSV/eR1eqeJ9K8Q2EMyP5F9A33H6n1A9a6zw9cGWwTnOBivKtT02CVxNAQkgOeO9ekeDpDJYDPYDNV0I6lrxDbB4g4HNcvpepxaFrzS3LlLeWMhsDqRXaawgazOe1efa/bCXyO2XArVNOmk+5ja03Y0dU8aXWouYNJRoYjwZCPmP09Kn0Dwu0p+0X247jnDHJNWtM0qz0xBJOV3LySe1UfEHj6206MxWhVnxgEdqlyUVaJcYuTuzotX1yz0KzOWVSo+VRXj/AIj8T3WvXRCu3l5wAKo6jqt5rdyXmdtpPTNdJ4R8ES6w4lmDRWg6sRy30rFs3Vo7blDwr4SuNcugEBWJT+8lI6f/AF69n0rSrbR7JLa1QKijk9zUlhp9vptqtvaxrHGo7DrVmkJsKKKKYgooooAKKKKACiiigAooooAKKKKACiiigAooooA5Dx74TXX9P+0W6j7bAMqf7w9K8XKPbzGORSrqcFSMYr6Xrg/HHgNNVR7/AE1Al0oyyDgP/wDXrGpTvqiJxvqjzK2nxjmtGORZBjisR0ltZmimVkkU4KnjFW4bjHeuGcDEnurMPll//VVaO4e3OHzjsa04pVlGCfzqC6tQ4JArPfRlRm4u6HxXWQMHj25q3HcB8c89q54mS2fjOPSrdveK/Q4PcVhUoaXR20qqlp1OiiuegPOKs/acJnPf86wEuO/f61aS8BAGfrXDOjrc74vTU2hIsgBU/wD1qjui8kOM9Dms1JmjO5Dx3FTC/jJCudpPA96y9m07rU2STRYhvWHyTfeHQ+tSRak1lfx3MBwynn3qlcAHp9QarGTBw34GrgrSUo6MHC6sz2ewvI7+zjuIjlXGas1wPgPWdsz2EzfK3MeTXfV9Rh6vtYKXU8mtTdOTTCiiitzIKKKKACuYg/4nPiKSY8w2x2J9e9berXX2LS7ibuqHFUPC9r9n0pHI+eT5ifWri7JsiWrSNG/uVsrJ5OgUcV47qV4b3UJr2f5lQ4jB7mvSfF8zCxMak/MK4Gx0htT1m1sgP3YbdJj0qXokVF6s6PwD4cznWL1cyMf3II6D1rvqjhiS3hSKNQqIAoA7VJSGFFFFABRRRQAVh+JfCll4ltdlwuydeY5l+8prcooA8G17RdW8OTGPUYDPAPuzIvB/+vWSkltIQ0L7GHYmvoq4tobqForiNZI2GCrDOa4vWvhVpN+Wksi1pKey/dp3FY8wkv3EeDICAMDBr13wGpOjRuf4gK801n4dalorxySSJJA0gUMG5P4V6/4atPsekQJ6IKa2bE90ifWGCWbZrzzxRdfZtN85fvIQRXaeJ70QWwXPWuFvrG58QOlhZhWkI3HJwAKJO0UghG8mzlLzxHqeo8GRgp444qta6bPfThVR5pWPCqMmvStL+FqJhtSuS2OqRjH612emaHp+kRBLO2RPVscn8ajVml9LHGeGfhysWy41YKccrCP616BFEkMaxxKERRgADgU+imSFFFFABRRRQAUUUUAFFFFABRRRQAUUUUAFFFFABRRRQAUUUUAFFFFAHKeLPAtp4gQzwgQ3gHDjo31rx7UtNutFvWtbxCki+vQ19GV5F8W7YjWbaVcgtH19axqwVrmc4q1zj4bkoetadvcrKMGudSUg4birkM2MEGuOdMysal1ZrICQPesea3aJyVyCPStq3mEkYB9KguIg+eKzTadmCdjNjvGT5ZPzq3Fc++R2NVZrfr6VVy8R+U8elEqSlsdlLFNaS1R0EV1jg/dP6VM+2ROx9Kwo7rs3FXIbox8HlTXHOi07o9ShVjNaO6NCK6aI7JOU7H0p8pB5HQ8iqpYSAEdDTPNMfHasuS7utztVP7ixDdS2c6Swkq6HIIr17wxr0euaYj7h56ACRfQ14yXB5BrZ8Ia42j6zGWP7qU7XH8q7MJVdOVnsznxWF54XW6PaKKRSGUMDkEcGlr2zwwooooA5/wAZTGPSI4x/y1mVT9K17CMR2cajsorn/HLlLWyP8P2hc10lqQbZCPSnfSxNtbnNeI/3kxz0UVU8GWoOq3dwRyqhVP1qfxG+JH+lTeDNpS5I6kirqxtZk0ne51FFFFZmgUUUUAFFFFABRRRQAUUVz3iTWmtUFjZnddzDGR/APWmk27CbSVzO1CVvEHiJLaPm1tW5I6M3eutAWCADgKorK8O6Qun2YZh+8bkk96oeMfEKaVZNGrDzGH5VUrbImCb16s5fxfrnn6h5UbcA9jW18PbQyi41CQH5vkQn0715nbPPq+pgKC0krBVFe6aJpyaTpNvaL1RRuOOp71m9WatKKsX6KKKZIUUUUAFFFFABRRRQAUUUUAFFFFABRRRQAUUUUAFFFFABRRRQAUUUUAFFFFABXm/xXiB+xPj1FekVxHxQtTLocVwBnypMk46CoqK8WTLY8fltwag2PGeK0AQaQxCTAA5PAx3rjUmtGYFvTobj7Ely6ERM20N61c2BxnrzXcv4VZPh3FCq/wCkxr52Mdf8iuChlwCp6g4IqK0HFp9xyViG4jA5rKuUAOa2pXVwQKNI0Qa/qy2XmGLeCdwGcUqd27CWuhhoQRThlPunH8q7m5+EmoR5NteRSAdARism6+HniG16Wvmj1RhWjpS6ouPNF3Whgx3JjPPHrjvVoSrIMqf/AK1NuNA1e2z51hOPouazm822Pzo0behGKxnQT1WjPSw2ZTpaTV0XySOQTTfOYEEHkHINNty1yhKcsOoprggkEYPvWDi4vU9+hXo4iN4P5HtfgfxHHrekJG7KLqEbXXPUDvXTdK+ftA1ibRNTjuYHIGcMM9RXuGkavFqluroQJMcrmvSw9dSXK9zwsfhvYVNNnsaVFFFdRwnMePoi/h4Sr1ilV/wrV0K5F1pUMgOcqKk1qyGoaPdWx6yRkD61yfw81YvZvZTHEsDbSDTQmX/FMJ3k/wB4VW8F3AW9ngJxvUED6V0GuWn2mzLD7yjiuDjuZNJ1OO4UHCtkr6iui3PT80Yp8k2eoUVDaXUd5axzwsGRxkEVNXMbhRRRQAUUUUAFFFYOueIlsf8ARrMCa7bjaP4fc00m3ZCbSWpLr2vJpcXlQ4ku5OEQdvc+1UNA0Ni7Xt6S88h3En/PSk0TQHkmN7qDGSZjklu//wBatfVdWt9ItGeQgEDhattRVluZpObu9huuazDo9mzyMobHAzXiGva1PreoOSxKk8VZ8T+JbjXLxlVm8vOAM1f8FeEX1m8DyqRaxn943r7VkzoXu+p03w28MCJBqlynbEIP869FqOCGO2hSKJQsaDCqB0qSmQFFFFABRRRQAUUUUAFFFFABRRRQAUUUUAFFFFABRRRQAUUUUAFFFFABRRUF1ewWUXmXMqxr6k9aAJ6K4vW/iTYac4jtENxIevOAKrWPxX0+4GLi2kjYHBIORQB3tVdS0+HVLCW0uRmOQYOKxYPH+hzLk3JQ+hFVNY+Iml2dq32OTz5iPlA4AoA8i1i3XTdcurKPcyRSFUPrXUeAfD02p6yk91Ay20HzEsMAntWNZXyf8JJDqF4qyL5u+QHnr/hXqN58QNC02BGgbzNx5WNcYrL2SvcnkV7nVbVKbcDbjGK8W8X6U+i65Mu0+TKd8bAevavY7C+g1KyjurZw8UgyCKz/ABNY2F3o8z6iiFIlLKx4wadSHOrBJXR4c8vSuz+Gdg9xrEt6V/dxKRux3NcGZEjvUWZiIWfDMOwr3rwzp1jp+jRLpzB4pAH35znNY06LTuyIwad2aqCn0gFLXUaiFFbqAfqKoXuh6dqCFbmzhcHvtANaFFG4Hjvjnwf/AMI1MmpaSrC0Y4kTOdp/wrKs5LPVoQJAElI6jjNe33tlDf2ctrcIHikUqwIrwzxL4cufCWrOpVnsnbMcgHb/ABFceIoJ6oh3i+aOhI3hslyFmC56ZFdZpomsIINkh8yIYDA9a5O21OfyBgCaIjGc8itvTroyw4jmPTG084rzJqUdb7F1MVVqpRm7pbHouj65HfqI5cJOByPWtevNIXkR1LHBB4cdq9DsZluLSN1lEnHLDvXp4TEOqmpbomLuWK8s8RrJ4R8Zi8jBFreHdx2PevU6w/Fvh2PxJoz2xwsy/NE3o1dhRa0nUodVslZGByORXOeJdDKkyIMqeeO1cP4f8Q3nhvUHs7wMrRNtZTXrGm6rZ65ZgqytkcqTWkJ8j8jOcOZeZxvh/wAQyaFObe6DNasfxX/61ehW1zFdwrLBIrow4INctrfhTzcvbjPsBzXOW/8AaugTlrV3Vc8oeQa0lBT1iRGbjoz1GiuItvH00YC3liSR1ZDirn/CfWZHFtNn0rJ05LoaKcX1OrpksscMZeV1RR1JOK4+XxvcTZWzsCCejO1Qx6bq+uyBr6VhCTnb0Apqm93ohOotlqXdS8Ty3shtNHViTwZiOn0qzonhtbbE91l5TycnOav6do9rpcIOFyByxFY/iPxra6ZCyQuGk9QelDmoq0fvCMHJ3kaeueILbRbZizLvA4ANeOeIPEtzrl2yqx8vNVdV1i71y5JZmEZPc9a2vCvg641yYFQYrVT88pHX2FZGysiDwt4Vn1u8CRgrEpzJKR0/+vXtOm6dBpdlHa2yBY0GPrSabpltpNmltaxqkajsOtW6BNhRRRTEFFFFABRRRQAUUUUAFFFFABRRRQAUUUUAFFFFABRRRQAUUUUAFFFFABXL+IPDN14h1JRLcmGyjXgIeSa6iigDxDxb4MufD94JBKZrSQ4VifmHtXOXW+ykEbWrwKRnDjBNfQmo6Ra6q8Ju03iFtygnjNJfaJp+pFTeWkcpXoSOlAHhWlaHq+uH/QLVimcb2GBXSW/wn1RwZLy9hiUDJwc4r1u3torWERW8axxqOFUYxRdQfabWWHO3zFK59M0AfPupabZ2Fy6JeSS7DgkDrVIXEQjPXGcc9697sfCmlWdsIjaxyHHzM4yTWXc/DTQLq/8AtJt2XnmNWwpoA868PeJdftrM2ejwu0WchiuQv4+lQ63ceI7uMf2jcgxMeVEn+FejeNIDpnh+Gy0q2I81tuyIckCvLLbTNV1K9WxS3nEsj4JIOFH/ANagDIvJF8zA52jHHNbegeLNf0WMpYrLJD12spYCvU/D/wAOdI0eNWniF1cY+Z37H2rqI7O3iTZHBGq9MBRQB4ZJ8RNamvBM10yMDgRgYFeh+GfGd5eSQwatZSxebxHNsIU1tT+DNDuL5buTT4jMDnIHBNbPlR4C7FwvQY6UAPooooAKq6hptrqtq1veQrLGw6EVaooA85uvhe1tO0mk3YEZOfKl5FYt74b1TTZN3kMCP4kGQa9gppXPXke9c9TDwmQ4Jnlem3FzcHyZLaXzAOcKcGtW01G70ifcgYx5+aMjrXfCNF5CKD7CkaCJ/vRqfqKwWD5Zc0ZWYKFupFYXqahZpOisobsw5qzSKoRQFAAHYClruV7alnFeO/A41+P7bp+2O/jHToJB7+9eZ6dreoaBemJ98UsZw0b8V9A1zninwXp/iaHdKvlXSj5JkHI+vrTAx9D+I1rcosd5lGx1NdOlzpmpoCGjbPPWvGtc8Ea34fcsYWubcHiWIZx9fSse21i5tT8kroR1GcU07bCavue8SeHtOl5AX8DTV8M6ehyQPzrx6DxnqcQAW5J+tPfxtqbjBuT+dXzy7kckex7Mlrpliu7EQx3JFUNQ8ZaZp6EI4ZgOAteMXPiO8uM77hjn3qk9xLcNyzHNQ23uy0ktkdxr/wAQp7vdHASFPAArjpHnvpN9wxOTwK1dE8I6pq7g29qwjP8Ay1cYUV6Z4d+H9lpJSe7IubleRkfKv0qSrnK+FfAE+o+Xc36mC0zkIfvP/gK9StbWGygWG3jWONRgKBipunSigQUUUUwCiiigAooooAKKKKACiiigAooooAKKKKACiiigAooooAKKKKACiiigAooooAKKKKACiiigAooooAKKKKAGlFYgsoJHTI6U1YIlcusaBz3A5qSigAooooAKKKKACiiigAooooAKKKKACiiigA79OPWiiigAooooAQqGGGAIPY1ian4N0TVsm5sIt5/jRQDW5RQB59dfB/SJCTb3NxF6AkECqX/Cmoc/8hFsf7tenUUAef2vwi0qIgz3E8mOwIFdHpvgzRNMKtBZRs6/xOATW7RQA1EWNdqKFA7AYp1FFABRRRQAUUUUAFFFFABRRRQAUUUUAFFFFABRRRQAUUUUAFFFFABRRRQAUUUUAFFFFABRRRQAUUUUAFFFFABRRRQAUUUUAFFFFABRRRQAUUUUAFFFFABRRRQAUUUUAFFFFABRRRQAUUUUAFFFFABRRRQAUUUUAFFFFABRRRQAUUUUAFFFFABRRRQAUUUUAFFFFABRRRQAUUUUAFFFFABRRRQAUUUUAFFFFABRRRQAUUUUAFFFFABRRRQAUUUUAFFFFABRRRQAUUUUAFFFFABRRRQAUUUUAFFFFABRRRQAUUUUAFFFFABRRRQAUUUUAFFFFABRRRQAUUUUAFFFFABRRRQAUUUUAFFFFABRRRQAUUUUAFFFFABRRRQAUUUUAFFFFABRRRQAUUUUAFFFFABRRRQAUUUUAFFFFABRRRQAUUUUAFFFFABRRRQAUUUUAFFFFABRRRQAUUUUAFFFFABRRRQAUUUUAFFFFABRRRQAUUUUAFFFFABRRRQAUUUUAFFFFABRRRQAUUUUAFFFFABRRRQAUUUUAFFFFABRRRQAUUUUAFFFFABRRRQAUUUUAFFFFABRRRQAUUUUAFFFFABRRRQAUUUUAFFFFABRRRQAUUUUAFFFFABRRRQAUUUUAFFFFABRRRQAUUUUAFFFFABRRRQAUUUUAFFFFABRRRQAUUUUAFFFFAH/2Q==;" vertex="1" parent="1">
          <mxGeometry x="340" y="470" width="53.26" height="40" as="geometry" />
        </mxCell>
        <mxCell id="bDuVNfmG5sle6N2JD3q_-11" value="&lt;ol style=&quot;border-color: var(--border-color);&quot;&gt;&lt;li style=&quot;border-color: var(--border-color); text-align: justify;&quot;&gt;Generates a description for an IG post/story given some context&lt;/li&gt;&lt;li style=&quot;border-color: var(--border-color); text-align: justify;&quot;&gt;&lt;span style=&quot;border-color: var(--border-color); background-color: initial;&quot;&gt;Creates prompt for DALL-E to generate an image on given context&lt;/span&gt;&lt;/li&gt;&lt;/ol&gt;" style="text;html=1;align=center;verticalAlign=middle;whiteSpace=wrap;rounded=0;" vertex="1" parent="1">
          <mxGeometry x="348.26" y="510" width="240" height="120" as="geometry" />
        </mxCell>
        <mxCell id="bDuVNfmG5sle6N2JD3q_-12" value="" style="shape=image;verticalLabelPosition=bottom;labelBackgroundColor=default;verticalAlign=top;aspect=fixed;imageAspect=0;image=data:image/png,iVBORw0KGgoAAAANSUhEUgAAAEcAAABJCAYAAABvujtvAAAAAXNSR0IArs4c6QAAAARnQU1BAACxjwv8YQUAAAAJcEhZcwAAFxEAABcRAcom8z8AABDqSURBVHhe7ZsLmE1VG8ddJ6HUuIyEcplcGsl1hKmhxpBEMsatUAijUoo0YpiSh6Y8pTx0kxhUQiqi6Ep96otJKWSQyzRKMohc1vf+9ux1rLNn7znnID7yf573OWvvvdbaa7/7va99CpzHeZzHWY+1a9eGDx8+PKJKlSoRcmhRiRIlIrp06RKxcuXKCKVUcavjvwXywAWHDBkSK0xoefvtt29s1KhRTqlSpXIKFiyYI5dzChcunFO9evUcYVBO3759F7Vt2zZ22bJlzXJHn8N44IEHujRp0mRqw4YNVaFChZScCkhVq1ZV7du3VyJhIzdv3txUzp1b+Oyzz5p37tw5/corrzx6wQUXuDIhENWuXVt16NBh+7333nvuMGjUqFFN4uLidpUtW9b1oZGgkiVLqoiICHXppZeqiy66SHkxUFROVatWLTs6OrqBHJ/duOOOO+qJCu3koeTQjypXrqw6deqk0tLS1Hvvvac++eQTtWLFCvXBBx+o6dOnq0GDBqlatWopsUV+4zguXrz4NmF4G7FF8aNHj45PSkqKv//++63fmTNnxm/dujVK+v7/4rHHHhNb22hrkSJF/B7ukksuUQMHDlRff/21Onz4sNhnb/z8889q4sSJ6tprr/WbA7riiiss5l533XWqbt26ql69ela/Nm3aqNatW2+tVKlScs+ePYdK3/8viIuu3b179y2oixz6qE6dOmrBggXqyJEj9uMHhy1btvDAfnMFIpEuJSGCEiYtTkhISJJpCsn5M4vly5cXEffb12ljGjRoYElLqNi3b5965513VOPGjf3mC5aQXAkbjogUbxBVbSnnzhwmTZpUUuzMPmn6Fihvz7InoeKLL75Q8tatBzTnM6lo0aKqdOnSqkKFCqpcuXKeIQJ27/LLL9+dmJiYIOpaWc6dfvTr12/YhRdeeEya1qKkrV5//XX7cYPDxo0b1cMPP2w9sJ7HJLwZtiUlJUXNmjVLLV261GK+SK2aOnWqknhKiaS4jpUAU4k9XCVGu7ocnx7IM4WJrQkT8c/kbXIK6tixozp06FDuUwfAgQMHrIfDwOrxJiFBElWr999/X+3evdse5Q7s1EsvvWQZbOc8BJYSM3WW9j8LsQnlH3/88XZjxozZcv31128RsT4kp61FwKSFCxfay/XGsWPHLHd+yy23eKoQUfW0adNUTk6OPSo4bN++XYk0W2sx5xOvuaNp06YNpX3qIfctOXLkyMRbb701o2bNmtbNnfGMBGsqOzs7d5UeEGmz1IAA0ByrqWLFipb6bNu2zR4ROpDc1NRUP8bTFinftnr16mg5PnWQ+4VJgDcvkAfhjR09ejR3hQ7s2bNHPffcc+qqq65yHQujJRxQX375pT3i5HDw4EElgaLfPcqXL88a50j75CH3KCLRawmJH2Z7vWmTnnzyydyVOfD555+rli1beqqQJKdqzpw5lg06lcBOier73YsIXmKv9tI+Obz77rsJ8fHxrukAcY3EE75j1Oy1116zl3UcGzZsUNdcc43fWE2SmCqxXyorK8vu7Y3169eTqavBgwerr776yj4bGMRMBIj6ngSK7dq16yftk0KYiGG6MynkRnfeeaeSzFtJ5u07D3PefPNNe0nHgeE1x0Mkm3379lUZGRl2L2/8/vvv6qmnnrKibT0+MjJSTZgwQYl7tnt5Y+/evUrspG8sL1oM83QJUMvIceiQOQvFxsZOJ2bhUBP5TXp6us9Vd+3a1XcN5rzxxhvWeRNvv/223xyo17x58+yr3iAPw4Xnl0bIQ1pz/f333/Yodzz77LN+wSJzTp48+cQKamPHjp2E+EnTR6jAhx9+aN8u1x1TlNLXyZ5hnBM8oLY1LOq3336zr3jjhx9+UPfcc4+fR3Nm65ouvvhiJQmn+uabb+zRebFy5UqiZd8Ynu3mm28O3WstXry4kmS860w7wyLd4hcCNN0HBmBUnViyZInP5ffp08c+6w7CAGyQ88VERUVZ2fpdd92lSpUq5XdNE1L9xBNPqF9//dWe7Th4IeR6um94eDjlkdCZI2H8BHNxiCMLdoPJHC+bA1M1c3r06OGqAmTtqEeLFi1880HkUA899JD66aefrH6oGgZWVN6vn0l4J+bClWuQzJpeC7sZEREROnPkzYzlQaVpEeG4V2BnMicsLMw1pxKP5yc5zprOqlWrVO/evf0kghoQtRuRYruXP1gPBrlGjRq+MSZROuFeuiqAjWzVqpXvOusRexoacyRBayEivFOavolefPFF6wZO8LZNmwNDSQqdoNKnjSFqoYH7HjFihJ8t0BQTE6M2b95s9/TGd999Z3k9L1UjkYWJ5F3Nmzf3nae/2NDQmCOS0Bk3KU2LUK/vv//eXoo/iIRDdeUwh0APJhL46fOQGSASPtx4441BeSLWsWjRIkslTTupiXWRp6Gi+txll11GqhOyWrUy3bcES56lTSQH0dd9kQ43ycEg6we/6aabVJcuXVSxYsX8xklqYmXUhAYmk7R6oHqBQDQ8adIkT1UzqX79+qQWwTNn586d5RISEpZL0zcJRW8vOJnDW3NjDmVS/Uadb5Zcjcxbpw0EbJQwWLzZj+L8mDFjgoqkkfQBAwZYjDXnMCkxMVF9+umnwTPnl19+ibzvvvv8Jhk2bJh9y7xwqhUG2U2t8C7mnBBinZyc7GlXMjMzrets3+gxxDmoIrGU6YncoANIJN8M/jR169aNyDv4HQt5K1UlYz0iTd8kGEwvIDmmt0IqZs+ebV89DtRKLxCVRa2CrS3rsqmp6rTJ3oPJr/788081bty4POUR4hyRzuDzq7/++qv6gw8+6DcJdRcvIDksXPeFAW4RMnGOtiOoYbBVQg1UjaKYvo8m6j6jR48OyquxLqTVHC+qemz8+PG9pB0Ykg6UEIM5Xpq+CdBNL28Bc0xXjlq99dZb9tXjMOMc1PZEgA1hPKrlTISJw0y75YVXX33VSjX0OJxCXFzcf6UdHETcWiFy0rSIonV+FbnbbrvN1xfpcEsosTmaOXfffbeVk4UKvBnjiU+ef/55i1lmuYQHpU9+hTLuiyboMZBIz/7BgwcnSTswHnnkka6UOqVpEQuYP3++PX1emAYZ6t+/vxKvZ1/NhSk5xDmB4hYnsG0wVa+HJBLMnTs3T6xELCOBrGdySzB49dVX+/pjvyQBXSD5WHk5zh8SDdeqW7fuCtPl9urVy9NOwDiydd0XIoeZOXOmjwkmcyijhgo8j8mcjz/+2L6iLHuDiyfpNNcgL9lSezeQJ5p9cSpiDhKlHRgSRI2QGMG3D0VhihTAC+wfoV7YHD2Gh8ArUXpYtmzZSUmOyRyiXfasnCBj1/eGRBo83T1ejs1A3Zeatrj2jtIODEnQwkW315r1E6Rh165d9vR5QdaLwXMGb0Sr8fHxPm+FXQjV5tCf/Inx2JaPPvrIvnIcOAJT2qkb7d+/377qD7Z6WJPua5dQWwkFB0nSUuWBfPtREG8dt5ofEHOCN9ysOVbTiagVwJYxHik21UqD5NhkDhm4hCb2VX/AbFIS3RfCS8v5EtIODJmjsEgL3+z5TcKbl0g69y75gN0G6sxOt0vRiu9yggUPghoxjvGorlmN1HAyh5pxfq6dIr3uCw0ZMgRmBrddLOOLSIDVn4+JODTphhtusIwsXiQ/6OzbLDJBlCgINn/88Ue7pzu4zr5TmTJlfGPxLm7MmTFjhh9zsDleagWGDh3q6wuRGZAhSDs4iIeK0rruJMJxYoZADwjIlseOHWt9eWHOwa4pWbRzD1xn11w3+0MEcW5q9fLLL/vlUNgUL7UCSIo5L5KUnZ0dKe3gIDeMNg2XG/EBAJ7ijz/+sG/rjdWrV1t2y5ktkxrg0ZiDX2eqwIvQgSlj+bLCCadaYZC97COqqr0fBFNlXcvlfDk5Dg5U552FbjdiUSzGLTp2AjdO5s72jDkH2TcZtJmFQxS8SFzNOMeNOXxT6GQOSacb8Lps6ei+ML5s2bLBeytAGdEsPxIPUMLw2utG5Kn/ULoMBKRkypQpfCnqOhf3QCJ17Vqrt1ecQxhhqhU5n5daEbOZORa7sQMHDgzt8xRxm9FmYIeK8ea//fZbq2LnVUzigZ955pk8aYQTlDad3+VgfNmvMksaRLoU4LmOQUb1nECtzAoiHzp5fbqSlJTk6weJw9g5e/bsFtIOHrKQaPOGeABdMuWtsLuJ2OvrTmL7hPTCGamuWbPGYoD59njrzAXDnF7QjJB5IW4GmazclBwvtWLjz/x2kUhZMvOJ0g4N7OuYG/DoKfvWJthA4zsYZ26jifHkZhhjVOTpp5/Oo5bEMC+88ILn9g+AmfT1Uis+YDCZ4xbn4AXN4hwZQIUKFTY9+uijjeU4NEiUHG1+o8dDeG3c8/AwAYOp+5uEqlEvNo0mKoSIBxMOaMkhqHRLH5xq5RbnjBo1ym9LWRh9NCYmZq60Q4foebT5ZQPlALeFaSD+eCx2GPQYN+IheLNEyrjV/MADkuFrafOKc1555RU/ySF90OrMb0pKSp5ovVGjRoeFYRWkHTokmWtmiiGUX01ZA/EdP368q1cjMcVLBcrRANkzKYgpETgIN7Vip9WUyg4dOljnqQogdeY1iBAlLS1tunQpIsehY/v27WXatm2bbtodPqffsWOHdeNA4Ns/EkaMHvVbQvZNmzbZV71B7kZtmO0YfV9NSA7fBTnBnpfJAOwjttAsbGliXgkNZsiwMDk+cXTq1ClBjO0Bafom50OiYIGqrVu3znPX1ATij3rwnwbzfpp4eGrQblLH53amWjklBeI6n9x27959RmZmZjE5d3Lg031JPhcSX8ihRXx0SNZ9KsEWDBm/0y5oIgHmY0u32IU4yBm7OAl1rFix4jpJeKfJkFP3nwjhdGeJL3ZL03ezZs2aWd/6nSzwfuJKLYab82vCo5GZ828aLyBxeCe38RARcMeOHVdLsllFjk89evTokWFKD0R+hAs/EaAaqJCzcqgJI0wKkJ931GAf3bknhW3i4wGJ5PeIrespQWs1Of/PID09PVputsupy/zVkLwmv9qJCdIPEke8ifkxgUmED+yXB+PRAPGLOV480aHk5OQpokI1169f/88xxYTEDk0jIyN3mK4VQqJ4WNwpxtfJKBiCByI1wK2axW2TyMjxaMHsYGpg6M3dD2xWnz59MqV9+iFi2ly8SZabN4CIbYiN+GceD8ovm/bshXlFz3gRxrgFd/mBoj5xkDmX5E3HxHAPk/aZwfDhw5u1a9fOUjHTfYZKjD/RP38A3Lf5kliLpDDUKUrK8ZnDrFmzKkmaMEj0ewM7AnIqZGK3NL/tHi+wwQhjTAcBY8QrHZg4cWKCdDmxqPdUQxZSqHXr1mkSKP6H4A3XC7N0HYhFo07mJ2eacLHsNwVreAGFNLZ3nPGQ2MEsiYaD27U83ZAEMmLcuHHJYluSJQNPDg8PT5bYYq0czxDGJUuSx3m/P61BqIWkKFbplA8W3Lwe+97sj7Mfxr/uzPEQlQMxwkukffZAGFZNnq2ofVhAotg6UVFR25zeDiJ/oyrIJy8kt+x/s6fNXxvj4uJcvziFUC1x/f3WrFlTX47Pbkhe1kCCu2yv/3IGSzBTwoqDwtDecnzuQGKhpgMGDEivUaPGYfNboGCJrWbxcvNTUlLOLcaYSEtLSxCPNZk0wUttNKE+5HMxMTFLJeAcJOf+HZg3b16sPHis5FndRKL2ysPnSCKZI14wR3K6HDHEOWJ3eqSmpsaKHSttD/v3ISsrK2LBggURkstZlJGREYEntC+fx3mcx9mMAgX+B3EJpGwkdS0vAAAAAElFTkSuQmCC;" vertex="1" parent="1">
          <mxGeometry x="275.82" y="557.71" width="48.36" height="49.72" as="geometry" />
        </mxCell>
        <mxCell id="bDuVNfmG5sle6N2JD3q_-13" value="OpenAI" style="text;html=1;align=center;verticalAlign=middle;whiteSpace=wrap;rounded=0;" vertex="1" parent="1">
          <mxGeometry x="270" y="532.57" width="60" height="40" as="geometry" />
        </mxCell>
        <mxCell id="bDuVNfmG5sle6N2JD3q_-15" style="edgeStyle=orthogonalEdgeStyle;rounded=0;orthogonalLoop=1;jettySize=auto;html=1;" edge="1" parent="1" source="vYMK42moYF4k0brq86LY-11">
          <mxGeometry relative="1" as="geometry">
            <mxPoint x="495" y="490" as="targetPoint" />
          </mxGeometry>
        </mxCell>
      </root>
    </mxGraphModel>
  </diagram>
</mxfile>
